<svg width="27" height="24" viewBox="0 0 27 24" fill="none" xmlns="http://www.w3.org/2000/svg">
<path fill-rule="evenodd" clip-rule="evenodd" d="M3.01693 7H19.1072C20.7734 7 22.1242 8.34315 22.1242 10V10.4021C22.1252 10.4277 22.1252 10.4533 22.1242 10.4788V21C22.1242 22.6569 20.7734 24 19.1072 24H3.01693C1.35073 24 0 22.6569 0 21V10C0 8.34315 1.35073 7 3.01693 7ZM20.1104 9.92286C20.0708 9.40662 19.637 9 19.1077 9H3.01736C2.48816 9 2.05443 9.40647 2.01469 9.92257L10.486 15.8192C10.8323 16.0603 11.2932 16.0603 11.6394 15.8192L20.1104 9.92286ZM2.01172 12.3618L9.33264 17.4577C10.3714 18.1808 11.754 18.1808 12.7928 17.4577L20.1133 12.3621V21C20.1133 21.5523 19.6631 22 19.1077 22H3.01736C2.46196 22 2.01172 21.5523 2.01172 21V12.3618Z" fill="#92929D"/>
<rect x="14.0781" width="12.0588" height="12" rx="6" fill="#FC5A5A"/>
</svg>
