<svg width="23" height="22" viewBox="0 0 23 22" fill="none" xmlns="http://www.w3.org/2000/svg">
<g clip-path="url(#clip0_33_134)">
<path d="M20.1335 19.9048C20.1335 20.0423 20.1064 20.1786 20.0538 20.3057C20.0011 20.4328 19.9239 20.5483 19.8267 20.6455C19.7294 20.7428 19.6139 20.82 19.4868 20.8726C19.3597 20.9253 19.2235 20.9524 19.0859 20.9524H4.41923C4.28166 20.9524 4.14543 20.9253 4.01832 20.8726C3.89122 20.82 3.77573 20.7428 3.67845 20.6455C3.58117 20.5483 3.50401 20.4328 3.45136 20.3057C3.39871 20.1786 3.37161 20.0423 3.37161 19.9048V1.04764C3.37161 0.91006 3.39871 0.773832 3.45136 0.646729C3.50401 0.519627 3.58117 0.404138 3.67845 0.306858C3.77573 0.209577 3.89122 0.13241 4.01832 0.0797627C4.14543 0.0271149 4.28166 1.75101e-05 4.41923 1.75101e-05H13.4183C13.5561 -0.000779614 13.6928 0.0256466 13.8205 0.0777809C13.9481 0.129915 14.0642 0.206732 14.1621 0.303827L19.8297 5.97144C19.9268 6.06933 20.0036 6.18542 20.0557 6.31306C20.1079 6.4407 20.1343 6.57738 20.1335 6.71525V19.9048Z" fill="#EBECF0"/>
<path d="M20.1335 19.9048V20.9524C20.1335 21.0899 20.1064 21.2262 20.0538 21.3533C20.0011 21.4804 19.9239 21.5959 19.8267 21.6932C19.7294 21.7904 19.6139 21.8676 19.4868 21.9202C19.3597 21.9729 19.2235 22 19.0859 22H4.41923C4.14138 22 3.87492 21.8896 3.67845 21.6932C3.48199 21.4967 3.37161 21.2302 3.37161 20.9524V19.9048C3.37161 20.0423 3.39871 20.1786 3.45136 20.3057C3.50401 20.4328 3.58117 20.5483 3.67845 20.6455C3.77573 20.7428 3.89122 20.82 4.01832 20.8726C4.14543 20.9253 4.28166 20.9524 4.41923 20.9524H19.0859C19.2235 20.9524 19.3597 20.9253 19.4868 20.8726C19.6139 20.82 19.7294 20.7428 19.8267 20.6455C19.9239 20.5483 20.0011 20.4328 20.0538 20.3057C20.1064 20.1786 20.1335 20.0423 20.1335 19.9048Z" fill="#6D7D78"/>
<path d="M1.2764 11.5238H22.2288V16.7619C22.2288 16.8995 22.2017 17.0357 22.149 17.1628C22.0964 17.2899 22.0192 17.4054 21.9219 17.5027C21.8246 17.6 21.7092 17.6771 21.582 17.7298C21.4549 17.7824 21.3187 17.8095 21.1811 17.8095H2.32402C2.18644 17.8095 2.05021 17.7824 1.92311 17.7298C1.79601 17.6771 1.68052 17.6 1.58324 17.5027C1.48596 17.4054 1.40879 17.2899 1.35614 17.1628C1.3035 17.0357 1.2764 16.8995 1.2764 16.7619V11.5238Z" fill="#FF5630"/>
<path d="M3.37163 11.5238V9.42859L1.2764 11.5238H3.37163ZM20.1335 11.5238L20.1545 9.42859L22.2392 11.5238H20.1335Z" fill="#DE350B"/>
<path d="M6.51447 12.5714H8.33732C8.50234 12.5637 8.66721 12.5894 8.82203 12.647C8.97686 12.7047 9.11844 12.793 9.23827 12.9067C9.35327 13.0217 9.44331 13.1593 9.5028 13.3107C9.56228 13.4621 9.58992 13.6241 9.58399 13.7867C9.58929 13.9492 9.56137 14.111 9.50192 14.2623C9.44247 14.4137 9.35276 14.5512 9.23827 14.6667C9.11419 14.7842 8.96763 14.8754 8.8074 14.9348C8.64717 14.9942 8.47658 15.0206 8.30589 15.0124H7.25827V16.6571H6.51447V12.5714ZM7.21637 14.3314H8.15923C8.35412 14.3468 8.54878 14.299 8.71446 14.1952C8.77396 14.1417 8.82011 14.0749 8.84921 14.0004C8.87831 13.9258 8.88957 13.8454 8.88208 13.7657C8.88208 13.4095 8.64811 13.2314 8.18018 13.2314H7.21637V14.3314ZM10.0973 12.6343H11.7526C11.9896 12.6243 12.2259 12.6681 12.4436 12.7625C12.6613 12.8568 12.8549 12.9992 13.0097 13.1791C13.3411 13.5938 13.5088 14.1156 13.4811 14.6457C13.5042 15.1816 13.3455 15.7095 13.0306 16.1438C12.8828 16.3418 12.6895 16.5013 12.4671 16.6089C12.2446 16.7165 11.9996 16.769 11.7526 16.7619H10.0973V12.6343ZM10.7992 16.0495H11.7526C11.9017 16.0549 12.0499 16.0244 12.1848 15.9606C12.3197 15.8968 12.4373 15.8016 12.5278 15.6829C12.7296 15.3841 12.8255 15.0263 12.8002 14.6667C12.8351 14.2932 12.7306 13.9201 12.5068 13.6191C12.4064 13.5046 12.2821 13.4135 12.1428 13.352C12.0035 13.2904 11.8524 13.26 11.7002 13.2629H10.7992V16.0495ZM16.9906 13.2943H14.8221V14.2686H16.9906V14.9391H14.8221V16.6991H14.1202V12.6133H16.9906V13.2943Z" fill="white"/>
<path d="M20.1335 6.71525V6.86192H14.4659C14.188 6.86192 13.9216 6.75154 13.7251 6.55508C13.5286 6.35861 13.4183 6.09214 13.4183 5.8143V1.75101e-05C13.5561 -0.000779614 13.6928 0.0256466 13.8205 0.0777809C13.9481 0.129915 14.0642 0.206732 14.1621 0.303827L19.8402 5.97144C20.0324 6.17085 20.1379 6.43828 20.1335 6.71525Z" fill="#6D7D78"/>
</g>
<defs>
<clipPath id="clip0_33_134">
<rect width="22" height="22" fill="white" transform="translate(0.757812)"/>
</clipPath>
</defs>
</svg>
