<svg width="22" height="22" viewBox="0 0 22 22" fill="none" xmlns="http://www.w3.org/2000/svg">
<g id="Iconsax/Linear/callcalling">
<path id="Vector" d="M20.1391 16.8025C20.1391 17.1325 20.0658 17.4717 19.91 17.8017C19.7541 18.1317 19.5525 18.4433 19.2866 18.7367C18.8375 19.2317 18.3425 19.5892 17.7833 19.8183C17.2333 20.0475 16.6375 20.1667 15.9958 20.1667C15.0608 20.1667 14.0616 19.9467 13.0075 19.4975C11.9533 19.0483 10.8991 18.4433 9.85415 17.6825C8.78908 16.9034 7.78403 16.0455 6.84748 15.1158C5.92052 14.1827 5.06557 13.1806 4.28998 12.1183C3.53831 11.0733 2.93331 10.0283 2.49331 8.99249C2.05331 7.9475 1.83331 6.94833 1.83331 5.99499C1.83331 5.37166 1.94331 4.77583 2.16331 4.22583C2.38331 3.66666 2.73165 3.15333 3.21748 2.69499C3.80415 2.11749 4.44581 1.83333 5.12415 1.83333C5.38081 1.83333 5.63748 1.88833 5.86665 1.99833C6.10498 2.10833 6.31581 2.27333 6.48081 2.51166L8.60748 5.50916C8.77248 5.73833 8.89165 5.94916 8.97415 6.15083C9.05665 6.34333 9.10248 6.53583 9.10248 6.70999C9.10248 6.92999 9.03831 7.14999 8.90998 7.36083C8.79081 7.57166 8.61665 7.79166 8.39665 8.01166L7.69998 8.73583C7.59915 8.83666 7.55331 8.95583 7.55331 9.10249C7.55331 9.17583 7.56248 9.23999 7.58081 9.31333C7.60831 9.38666 7.63581 9.44166 7.65415 9.49666C7.81915 9.79916 8.10331 10.1933 8.50665 10.67C8.91915 11.1467 9.35915 11.6325 9.83581 12.1183C10.3308 12.6042 10.8075 13.0533 11.2933 13.4658C11.77 13.8692 12.1641 14.1442 12.4758 14.3092C12.5216 14.3275 12.5766 14.355 12.6408 14.3825C12.7141 14.41 12.7875 14.4192 12.87 14.4192C13.0258 14.4192 13.145 14.3642 13.2458 14.2633L13.9425 13.5758C14.1716 13.3467 14.3916 13.1725 14.6025 13.0625C14.8133 12.9342 15.0241 12.87 15.2533 12.87C15.4275 12.87 15.6108 12.9067 15.8125 12.9892C16.0141 13.0717 16.225 13.1908 16.4541 13.3467L19.4883 15.5008C19.7266 15.6658 19.8916 15.8583 19.9925 16.0875C20.0841 16.3167 20.1391 16.5458 20.1391 16.8025V16.8025Z" stroke="#6D7D78" stroke-width="1.5" stroke-miterlimit="10"/>
<path id="Vector_2" d="M16.9583 8.25C16.9583 7.7 16.5275 6.85666 15.8858 6.16916C15.2992 5.53666 14.52 5.04166 13.75 5.04166M20.1667 8.25C20.1667 4.7025 17.2975 1.83333 13.75 1.83333" stroke="#6D7D78" stroke-width="1.5" stroke-linecap="round" stroke-linejoin="round"/>
</g>
</svg>
