<svg width="22" height="22" viewBox="0 0 22 22" fill="none" xmlns="http://www.w3.org/2000/svg">
<path d="M20.1666 9.16667V11.9167C20.1666 15.5833 18.3333 17.4167 14.6666 17.4167H14.2083C13.9241 17.4167 13.6491 17.5542 13.475 17.7833L12.1 19.6167C11.495 20.4233 10.505 20.4233 9.89998 19.6167L8.52498 17.7833C8.37831 17.5817 8.03915 17.4167 7.79165 17.4167H7.33331C3.66665 17.4167 1.83331 16.5 1.83331 11.9167V7.33333C1.83331 3.66667 3.66665 1.83333 7.33331 1.83333H12.8333" stroke="#6D7D78" stroke-width="1.5" stroke-miterlimit="10" stroke-linecap="round" stroke-linejoin="round"/>
<path d="M17.875 6.41667C18.4828 6.41667 19.0657 6.17522 19.4954 5.74545C19.9252 5.31568 20.1666 4.73279 20.1666 4.125C20.1666 3.51721 19.9252 2.93432 19.4954 2.50455C19.0657 2.07477 18.4828 1.83333 17.875 1.83333C17.2672 1.83333 16.6843 2.07477 16.2545 2.50455C15.8248 2.93432 15.5833 3.51721 15.5833 4.125C15.5833 4.73279 15.8248 5.31568 16.2545 5.74545C16.6843 6.17522 17.2672 6.41667 17.875 6.41667V6.41667Z" stroke="#6D7D78" stroke-width="1.5" stroke-linecap="round" stroke-linejoin="round"/>
<path d="M14.663 10.0833H14.6722M10.9954 10.0833H11.0046M7.32874 10.0833H7.33607" stroke="#6D7D78" stroke-width="2" stroke-linecap="round" stroke-linejoin="round"/>
</svg>
