<svg width="22" height="22" viewBox="0 0 22 22" fill="none" xmlns="http://www.w3.org/2000/svg">
<g id="Iconsax/Linear/setting3">
<path id="Vector" d="M8.24998 20.1667H13.75C18.3333 20.1667 20.1666 18.3333 20.1666 13.75V8.25C20.1666 3.66667 18.3333 1.83334 13.75 1.83334H8.24998C3.66665 1.83334 1.83331 3.66667 1.83331 8.25V13.75C1.83331 18.3333 3.66665 20.1667 8.24998 20.1667Z" stroke="#6D7D78" stroke-width="1.5" stroke-linecap="round" stroke-linejoin="round"/>
<path id="Vector_2" d="M14.2725 16.9583V13.3833M14.2725 6.82916V5.04166M7.72751 16.9583V15.1708M7.72751 8.61666V5.04166M14.2725 11.5958C14.5855 11.5958 14.8954 11.5342 15.1846 11.4144C15.4737 11.2946 15.7365 11.1191 15.9578 10.8978C16.1791 10.6765 16.3547 10.4137 16.4744 10.1246C16.5942 9.8354 16.6558 9.52548 16.6558 9.2125C16.6558 8.89951 16.5942 8.58959 16.4744 8.30044C16.3547 8.01128 16.1791 7.74854 15.9578 7.52723C15.7365 7.30591 15.4737 7.13036 15.1846 7.01058C14.8954 6.89081 14.5855 6.82916 14.2725 6.82916C13.6404 6.82916 13.0342 7.08026 12.5872 7.52723C12.1403 7.97419 11.8892 8.5804 11.8892 9.2125C11.8892 9.8446 12.1403 10.4508 12.5872 10.8978C13.0342 11.3447 13.6404 11.5958 14.2725 11.5958V11.5958ZM7.72751 15.1708C8.04049 15.1708 8.35041 15.1092 8.63957 14.9894C8.92873 14.8696 9.19147 14.6941 9.41278 14.4728C9.63409 14.2515 9.80965 13.9887 9.92942 13.6996C10.0492 13.4104 10.1108 13.1005 10.1108 12.7875C10.1108 12.4745 10.0492 12.1646 9.92942 11.8754C9.80965 11.5863 9.63409 11.3235 9.41278 11.1022C9.19147 10.8809 8.92873 10.7054 8.63957 10.5856C8.35041 10.4658 8.04049 10.4042 7.72751 10.4042C7.09541 10.4042 6.4892 10.6553 6.04224 11.1022C5.59528 11.5492 5.34418 12.1554 5.34418 12.7875C5.34418 13.4196 5.59528 14.0258 6.04224 14.4728C6.4892 14.9197 7.09541 15.1708 7.72751 15.1708V15.1708Z" stroke="#6D7D78" stroke-width="1.5" stroke-miterlimit="10" stroke-linecap="round" stroke-linejoin="round"/>
</g>
</svg>
