<svg width="28" height="28" viewBox="0 0 28 28" fill="none" xmlns="http://www.w3.org/2000/svg">
<g id="carbon:rule-cancelled">
<path id="Vector" d="M26.25 21C26.25 19.9616 25.9421 18.9466 25.3652 18.0833C24.7883 17.2199 23.9684 16.547 23.0091 16.1496C22.0498 15.7523 20.9942 15.6483 19.9758 15.8509C18.9574 16.0534 18.0219 16.5535 17.2877 17.2877C16.5535 18.0219 16.0534 18.9574 15.8509 19.9758C15.6483 20.9942 15.7523 22.0498 16.1496 23.0091C16.547 23.9684 17.2199 24.7883 18.0833 25.3652C18.9466 25.9421 19.9616 26.25 21 26.25C22.3919 26.2484 23.7263 25.6947 24.7105 24.7105C25.6947 23.7263 26.2484 22.3919 26.25 21ZM24.5 21C24.4967 21.6228 24.3253 22.2332 24.0039 22.7666L19.2334 17.9961C19.7668 17.6747 20.3772 17.5033 21 17.5C21.9279 17.5012 22.8175 17.8703 23.4736 18.5264C24.1297 19.1825 24.4988 20.0721 24.5 21ZM17.5 21C17.5033 20.3772 17.6747 19.7668 17.9961 19.2334L22.7666 24.0039C22.2332 24.3253 21.6228 24.4967 21 24.5C20.0721 24.4988 19.1825 24.1297 18.5264 23.4736C17.8703 22.8175 17.5012 21.9279 17.5 21ZM7 14H15.75V15.75H7V14ZM7 8.75H17.5V10.5H7V8.75Z" fill="white"/>
<path id="Vector_2" d="M12.25 24.2664L7.67026 21.8251C6.40956 21.1545 5.35528 20.1533 4.62057 18.9288C3.88587 17.7044 3.49849 16.303 3.50001 14.875V3.5H21V13.125H22.75V3.5C22.7495 3.03601 22.565 2.59116 22.2369 2.26307C21.9088 1.93499 21.464 1.75046 21 1.75H3.50001C3.03602 1.75046 2.59117 1.93499 2.26308 2.26307C1.93499 2.59116 1.75047 3.03601 1.75001 3.5V14.875C1.74806 16.6201 2.22139 18.3327 3.11919 19.8291C4.01699 21.3255 5.30536 22.5491 6.84601 23.3686L12.25 26.25V24.2664Z" fill="white"/>
</g>
</svg>
