<svg width="14" height="20" viewBox="0 0 14 20" fill="none" xmlns="http://www.w3.org/2000/svg">
<g id="Fire">
<path id="Path" fill-rule="evenodd" clip-rule="evenodd" d="M7.0625 0.0649591C6.7729 -0.0620209 6.4876 0.0268091 6.3041 0.213699C6.1259 0.395239 6.0367 0.672309 6.0992 0.951669C6.1979 1.39261 6.25 1.85136 6.25 2.32258C6.25 3.39842 5.9789 4.15193 5.5123 4.77657C5.038 5.41156 4.35149 5.92851 3.48466 6.5118C3.47103 6.52097 3.45834 6.53146 3.44678 6.54311L3.34179 6.64891C1.48195 7.85046 0.25 9.9426 0.25 12.3226C0.25 16.0505 3.27208 19.0726 7 19.0726C10.7279 19.0726 13.75 16.0505 13.75 12.3226C13.75 11.228 13.4893 10.1936 13.0264 9.2788C12.9887 9.2044 12.9164 9.1537 12.8336 9.1435C12.7508 9.1334 12.6684 9.1653 12.614 9.2284C12.5435 9.3102 12.4744 9.3909 12.4064 9.4704C11.5281 10.4965 10.8193 11.3247 9.3662 11.6946C9.3044 11.7103 9.266 11.6986 9.2387 11.6816C9.2067 11.6616 9.1716 11.6216 9.1476 11.5577C9.0975 11.4246 9.119 11.2548 9.2216 11.1436C9.9988 10.301 10.5509 9.1572 10.7482 7.53005C11.1177 4.48215 9.7325 1.23556 7.0625 0.0649591Z" fill="url(#paint0_linear_37_25)"/>
</g>
<defs>
<linearGradient id="paint0_linear_37_25" x1="7" y1="0.00549316" x2="7" y2="19.0726" gradientUnits="userSpaceOnUse">
<stop stop-color="#00A86B"/>
<stop offset="1" stop-color="#00935D"/>
</linearGradient>
</defs>
</svg>
