<svg width="80" height="80" viewBox="0 0 80 80" fill="none" xmlns="http://www.w3.org/2000/svg">
<g id="fluent:weather-hail-day-48-regular">
<path id="Vector" d="M43.3317 20.0167C53.8933 20.0167 59.885 27.0067 60.7567 35.45H61.0233C67.82 35.45 73.33 40.945 73.33 47.725C73.33 54.505 67.82 60 61.0233 60H25.64C18.8433 60 13.3333 54.505 13.3333 47.725C13.3333 40.945 18.8433 35.45 25.64 35.45H25.9067C26.7833 26.9517 32.77 20.0167 43.3317 20.0167ZM43.3317 24.175C36.23 24.175 30.04 29.9217 30.04 37.8583C30.04 39.1167 28.9467 40.1033 27.6933 40.1033H25.3267C21.0033 40.1033 17.4983 43.6267 17.4983 47.9717C17.4983 52.3183 21.0033 55.8417 25.3267 55.8417H61.3367C65.66 55.8417 69.165 52.3183 69.165 47.9717C69.165 43.6267 65.66 40.105 61.3367 40.105H58.97C57.7167 40.105 56.6233 39.1167 56.6233 37.8583C56.6233 29.82 50.4333 24.175 43.3317 24.175Z" fill="#86BF02"/>
<g id="Vector_2">
<path d="M45.6903 67.6944C45.0652 67.0693 44.2173 66.7181 43.3333 66.7181C42.4492 66.7181 41.6014 67.0693 40.9762 67.6944C40.3511 68.3195 39.9999 69.1674 39.9999 70.0514C39.9999 70.9355 40.3511 71.7833 40.9762 72.4085C41.6014 73.0336 42.4492 73.3848 43.3333 73.3848C44.2173 73.3848 45.0652 73.0336 45.6903 72.4085C46.3154 71.7833 46.6666 70.9355 46.6666 70.0514C46.6666 69.1674 46.3154 68.3195 45.6903 67.6944Z" fill="#01B4FD"/>
<path d="M34.0236 64.3611C33.3985 63.736 32.5506 63.3848 31.6666 63.3848C30.7825 63.3848 29.9347 63.736 29.3096 64.3611C28.6844 64.9862 28.3333 65.834 28.3333 66.7181C28.3333 67.6022 28.6844 68.45 29.3096 69.0751C29.9347 69.7002 30.7825 70.0514 31.6666 70.0514C32.5506 70.0514 33.3985 69.7002 34.0236 69.0751C34.6487 68.45 34.9999 67.6022 34.9999 66.7181C34.9999 65.834 34.6487 64.9862 34.0236 64.3611Z" fill="#01B4FD"/>
<path d="M57.3569 64.3611C56.7318 63.736 55.884 63.3848 54.9999 63.3848C54.1159 63.3848 53.268 63.736 52.6429 64.3611C52.0178 64.9862 51.6666 65.834 51.6666 66.7181C51.6666 67.6022 52.0178 68.45 52.6429 69.0751C53.268 69.7002 54.1159 70.0514 54.9999 70.0514C55.884 70.0514 56.7318 69.7002 57.3569 69.0751C57.9821 68.45 58.3333 67.6022 58.3333 66.7181C58.3333 65.834 57.9821 64.9862 57.3569 64.3611Z" fill="#01B4FD"/>
</g>
<g id="Vector_3">
<path d="M14.5528 35.3253C14.7246 34.8421 14.7111 34.3122 14.515 33.8383C14.3045 33.3305 13.901 32.9271 13.3931 32.7168C12.8852 32.5064 12.3146 32.5064 11.8067 32.7166L7.95336 34.32L7.76169 34.4116C7.29774 34.6662 6.94867 35.0884 6.78597 35.592C6.62328 36.0955 6.65927 36.6422 6.88659 37.1201C7.11391 37.5979 7.51535 37.9708 8.00866 38.1623C8.50198 38.3537 9.04984 38.3493 9.54002 38.15L13.3934 36.5466L13.585 36.455C14.0362 36.2111 14.3811 35.8086 14.5528 35.3253Z" fill="#FFE053"/>
<path d="M36.0784 17.8033L36.1817 17.7716V17.77C33.7624 15.9273 30.7788 14.9809 27.7397 15.0923C24.7006 15.2036 21.7943 16.3658 19.5164 18.3806C17.2384 20.3955 15.73 23.1381 15.2483 26.1408C14.7667 29.1436 15.3416 32.2204 16.875 34.8466C17.9732 34.0932 19.1642 33.4848 20.4184 33.0366C19.3989 31.3818 18.9319 29.4459 19.0846 27.5083C19.2373 25.5707 20.002 23.7318 21.2681 22.2572C22.5343 20.7826 24.2363 19.7485 26.1285 19.3045C28.0207 18.8604 30.0051 19.0293 31.795 19.7866C33.105 18.9733 34.5384 18.3066 36.0784 17.8033Z" fill="#FFE053"/>
<path d="M9.51169 18.1466L9.30002 18.07H9.30169C8.30669 17.7716 7.23502 18.27 6.83502 19.255C6.63063 19.7645 6.63393 20.3339 6.84421 20.8411C7.05449 21.3482 7.45503 21.7529 7.96002 21.9683L11.825 23.6183L12.035 23.6933C13.03 23.9916 14.1017 23.495 14.5017 22.5083C14.93 21.4533 14.4267 20.2383 13.3784 19.795L9.51169 18.1466Z" fill="#FFE053"/>
<path d="M21.6734 7.97331L21.5817 7.77998C21.3292 7.30755 20.9044 6.95054 20.3955 6.7831C19.8867 6.61566 19.3329 6.65066 18.8492 6.88082C18.3655 7.11099 17.989 7.51863 17.798 8.0191C17.607 8.51956 17.616 9.07437 17.8234 9.56831L19.4234 13.4116L19.515 13.6033C19.7684 14.0738 20.193 14.4289 20.7008 14.5953C21.2087 14.7616 21.7611 14.7264 22.2437 14.4969C22.7263 14.2675 23.1024 13.8614 23.294 13.3625C23.4856 12.8636 23.4783 12.3102 23.2734 11.8166L21.6734 7.97331Z" fill="#FFE053"/>
<path d="M37.8784 9.38164C38.1767 8.36331 37.665 7.26331 36.6617 6.84664C36.1456 6.63308 35.5658 6.6332 35.0498 6.84697C34.5339 7.06075 34.1239 7.47068 33.91 7.98664L32.2584 11.78L32.1817 11.9966C32.0365 12.5121 32.0931 13.0636 32.3399 13.5388C32.5867 14.0141 33.0053 14.3775 33.5105 14.5552C34.0157 14.7329 34.5697 14.7115 35.0597 14.4953C35.5496 14.2792 35.9389 13.8845 36.1484 13.3916L37.8017 9.59831L37.8784 9.38164Z" fill="#FFE053"/>
</g>
</g>
</svg>
