<svg width="48" height="48" viewBox="0 0 48 48" fill="none" xmlns="http://www.w3.org/2000/svg">
<circle cx="24" cy="24" r="24" fill="#38B000"/>
<path d="M29.9651 16.7364L23.4331 23.2686L23.433 23.2686L23.4315 23.2702C23.2655 23.4436 23.1741 23.6751 23.1767 23.9151C23.1793 24.1551 23.2758 24.3846 23.4455 24.5543C23.6152 24.7241 23.8446 24.8206 24.0847 24.8232C24.3247 24.8259 24.5562 24.7344 24.7296 24.5685L24.7296 24.5685L24.7312 24.5669L31.2636 18.0347V20.7273C31.2636 20.9708 31.3604 21.2043 31.5326 21.3765C31.7048 21.5487 31.9383 21.6455 32.1818 21.6455C32.4253 21.6455 32.6589 21.5487 32.8311 21.3765C33.0033 21.2043 33.1 20.9708 33.1 20.7273V15.8182C33.1 15.5747 33.0033 15.3411 32.8311 15.1689C32.6589 14.9967 32.4253 14.9 32.1818 14.9H27.2727C27.0292 14.9 26.7957 14.9967 26.6235 15.1689C26.4513 15.3411 26.3545 15.5747 26.3545 15.8182C26.3545 16.0617 26.4513 16.2952 26.6235 16.4674C26.7957 16.6396 27.0292 16.7364 27.2727 16.7364H29.9651ZM32.1818 23.9C31.9383 23.9 31.7048 23.9967 31.5326 24.1689C31.3604 24.3411 31.2636 24.5747 31.2636 24.8182V30.5455C31.2636 30.9423 30.9423 31.2636 30.5455 31.2636H17.4545C17.0577 31.2636 16.7364 30.9423 16.7364 30.5455V17.4545C16.7364 17.0577 17.0577 16.7364 17.4545 16.7364H23.1818C23.4253 16.7364 23.6589 16.6396 23.8311 16.4674C24.0033 16.2952 24.1 16.0617 24.1 15.8182C24.1 15.5747 24.0033 15.3411 23.8311 15.1689C23.6589 14.9967 23.4253 14.9 23.1818 14.9H17.4545C16.0438 14.9 14.9 16.0438 14.9 17.4545V30.5455C14.9 31.9562 16.0438 33.1 17.4545 33.1H30.5455C31.9562 33.1 33.1 31.9562 33.1 30.5455V24.8182C33.1 24.5747 33.0033 24.3411 32.8311 24.1689C32.6589 23.9967 32.4253 23.9 32.1818 23.9Z" fill="white" stroke="white" stroke-width="0.2"/>
</svg>
