<svg width="48" height="48" viewBox="0 0 48 48" fill="none" xmlns="http://www.w3.org/2000/svg">
<circle cx="24" cy="24" r="24" fill="#E84A4D"/>
<path d="M26.686 23.7796L26.4734 23.9915L26.6855 24.204L31.1866 28.7125L31.1868 28.7128C31.3495 28.8753 31.4785 29.0684 31.5666 29.281C31.6547 29.4936 31.7 29.7216 31.7 29.9518C31.7 30.182 31.6547 30.41 31.5666 30.6226C31.479 30.8341 31.3508 31.0263 31.1894 31.1883C30.8329 31.5264 30.393 31.7 29.9396 31.7C29.4782 31.7 29.0424 31.5415 28.6925 31.1911L24.2123 26.7035L24 26.4908L23.7877 26.7035L19.3103 31.1882C18.953 31.5265 18.5136 31.7 18.0604 31.7C17.599 31.7 17.1634 31.5416 16.8133 31.1911L16.8131 31.1909C16.6505 31.0283 16.5214 30.8352 16.4334 30.6226C16.3453 30.41 16.3 30.1821 16.3 29.9519C16.3 29.7217 16.3453 29.4938 16.4334 29.2812C16.5214 29.0686 16.6505 28.8755 16.8131 28.7129L16.8133 28.7127L21.3146 24.204L21.5262 23.992L21.3146 23.78L16.8339 19.2926L16.8337 19.2923C16.671 19.1298 16.542 18.9367 16.4539 18.7241C16.3658 18.5115 16.3205 18.2835 16.3205 18.0533C16.3205 17.8231 16.3658 17.5951 16.4539 17.3825C16.542 17.1699 16.671 16.9768 16.8337 16.8143L16.8341 16.8138C16.9964 16.6509 17.1892 16.5217 17.4014 16.4336C17.6135 16.3454 17.841 16.3001 18.0706 16.3001C18.3003 16.3001 18.5277 16.3454 18.7399 16.4336C18.9521 16.5217 19.1449 16.6509 19.3072 16.8138L19.3074 16.814L23.7877 21.3017L23.9996 21.5138L24.2119 21.3021L28.7124 16.8145L28.7131 16.8138C28.8755 16.6509 29.0682 16.5217 29.2804 16.4335C29.4926 16.3454 29.7201 16.3 29.9498 16.3C30.1794 16.3 30.4069 16.3454 30.6191 16.4335C30.8313 16.5217 31.0241 16.6509 31.1864 16.8138L31.1868 16.8143C31.3495 16.9768 31.4785 17.1699 31.5666 17.3825C31.6547 17.5951 31.7 17.8231 31.7 18.0533C31.7 18.2835 31.6547 18.5115 31.5666 18.7241C31.4785 18.9367 31.3495 19.1297 31.1869 19.2922C31.1869 19.2923 31.1869 19.2923 31.1868 19.2923L26.686 23.7796Z" fill="white" stroke="#E84A4D" stroke-width="0.6"/>
</svg>
