<svg width="48" height="48" viewBox="0 0 48 48" fill="none" xmlns="http://www.w3.org/2000/svg">
<circle cx="24" cy="24" r="24" fill="#048F5D"/>
<path fill-rule="evenodd" clip-rule="evenodd" d="M14.1986 23.9144C16.1196 19.1963 20.0832 16.167 24.5007 16.167C28.9181 16.167 32.8817 19.1963 34.8027 23.9144C34.9555 24.2895 34.9555 24.7111 34.8027 25.0863C32.8817 29.8043 28.9181 32.8337 24.5007 32.8337C20.0832 32.8337 16.1196 29.8043 14.1986 25.0863C14.0458 24.7111 14.0458 24.2895 14.1986 23.9144ZM24.5012 30.906C28.0627 30.906 31.328 28.4447 32.9907 24.5001C31.328 20.5556 28.0627 18.0942 24.5012 18.0942C20.9397 18.0942 17.6744 20.5556 16.0117 24.5001C17.6744 28.4447 20.9397 30.906 24.5012 30.906ZM24.4998 28.2985C22.4385 28.2985 20.7676 26.598 20.7676 24.5003C20.7676 22.4027 22.4385 20.7021 24.4998 20.7021C26.561 20.7021 28.2319 22.4027 28.2319 24.5003C28.2319 26.598 26.561 28.2985 24.4998 28.2985ZM24.5003 26.3714C25.5156 26.3714 26.3386 25.5338 26.3386 24.5006C26.3386 23.4674 25.5156 22.6299 24.5003 22.6299C23.4851 22.6299 22.6621 23.4674 22.6621 24.5006C22.6621 25.5338 23.4851 26.3714 24.5003 26.3714Z" fill="white"/>
</svg>
