<svg width="48" height="48" viewBox="0 0 48 48" fill="none" xmlns="http://www.w3.org/2000/svg">
<circle cx="24" cy="24" r="24" fill="#FFF0CB"/>
<path fill-rule="evenodd" clip-rule="evenodd" d="M24.5346 13.6764L31.9679 17.3987C32.2775 17.5528 32.538 17.7904 32.7202 18.0846C32.9024 18.3789 32.9991 18.7182 32.9992 19.0645V27.9331C32.9991 28.2793 32.9024 28.6187 32.7202 28.9129C32.538 29.2072 32.2775 29.4447 31.9679 29.5988L24.5346 33.3212C24.2764 33.4506 23.9917 33.5179 23.703 33.5179C23.4143 33.5179 23.1296 33.4506 22.8714 33.3212L15.4381 29.5988C15.1288 29.4427 14.8693 29.2032 14.6887 28.9072C14.5081 28.6112 14.4137 28.2706 14.4161 27.9237V19.0645C14.4162 18.7182 14.5129 18.3789 14.6951 18.0846C14.8773 17.7904 15.1378 17.5528 15.4474 17.3987L22.8807 13.6764C23.1377 13.5485 23.4207 13.4819 23.7077 13.4819C23.9946 13.4819 24.2776 13.5485 24.5346 13.6764V13.6764Z" stroke="white" stroke-width="2" stroke-linecap="round" stroke-linejoin="round"/>
<path d="M14.7129 18.0596L23.7072 22.5636L32.7014 18.0596" stroke="white" stroke-width="2" stroke-linecap="round" stroke-linejoin="round"/>
<path d="M23.707 33.5073V22.5635" stroke="white" stroke-width="2" stroke-linecap="round" stroke-linejoin="round"/>
</svg>
