<svg width="22" height="22" viewBox="0 0 22 22" fill="none" xmlns="http://www.w3.org/2000/svg">
<g id="Iconsax/Linear/archivebook">
<path id="Vector" d="M19.25 6.41666V15.5833C19.25 18.3333 17.875 20.1667 14.6667 20.1667H7.33333C4.125 20.1667 2.75 18.3333 2.75 15.5833V6.41666C2.75 3.66666 4.125 1.83333 7.33333 1.83333H14.6667C17.875 1.83333 19.25 3.66666 19.25 6.41666Z" stroke="#6D7D78" stroke-width="1.5" stroke-miterlimit="10" stroke-linecap="round" stroke-linejoin="round"/>
<path id="Vector_2" d="M12.1459 12.8333H16.0417M8.25002 16.5H16.0417M14.2084 1.83333V9.03833C14.2084 9.44166 13.7317 9.64333 13.4384 9.37749L11.3117 7.41583C11.2273 7.33642 11.1159 7.2922 11 7.2922C10.8842 7.2922 10.7727 7.33642 10.6884 7.41583L8.56169 9.37749C8.26835 9.64333 7.79169 9.44166 7.79169 9.03833V1.83333H14.2084Z" stroke="#6D7D78" stroke-width="1.5" stroke-miterlimit="10" stroke-linecap="round" stroke-linejoin="round"/>
</g>
</svg>
