<svg width="20" height="19" viewBox="0 0 20 19" fill="none" xmlns="http://www.w3.org/2000/svg">
<g id="Buy">
<path id="Stroke 1" fill-rule="evenodd" clip-rule="evenodd" d="M5.80379 16.1686C6.19062 16.1686 6.50504 16.483 6.50504 16.8699C6.50504 17.2567 6.19062 17.5702 5.80379 17.5702C5.41695 17.5702 5.10345 17.2567 5.10345 16.8699C5.10345 16.483 5.41695 16.1686 5.80379 16.1686Z" stroke="#6D7D78" stroke-width="1.5" stroke-linecap="round" stroke-linejoin="round"/>
<path id="Stroke 3" fill-rule="evenodd" clip-rule="evenodd" d="M16.1185 16.1686C16.5053 16.1686 16.8197 16.483 16.8197 16.8699C16.8197 17.2567 16.5053 17.5702 16.1185 17.5702C15.7317 17.5702 15.4172 17.2567 15.4172 16.8699C15.4172 16.483 15.7317 16.1686 16.1185 16.1686Z" stroke="#6D7D78" stroke-width="1.5" stroke-linecap="round" stroke-linejoin="round"/>
<path id="Stroke 5" d="M1.52075 0.979172L3.42742 1.30917L4.31017 11.8261C4.38167 12.6832 5.09759 13.3413 5.95742 13.3413H15.9601C16.7814 13.3413 17.4781 12.7382 17.5963 11.9242L18.4663 5.91267C18.5735 5.17109 17.9988 4.50742 17.2498 4.50742H3.73359" stroke="#6D7D78" stroke-width="1.5" stroke-linecap="round" stroke-linejoin="round"/>
<path id="Stroke 7" d="M11.9483 7.89542H14.4902" stroke="#6D7D78" stroke-width="1.5" stroke-linecap="round" stroke-linejoin="round"/>
</g>
</svg>
