<svg width="18" height="18" viewBox="0 0 18 18" fill="none" xmlns="http://www.w3.org/2000/svg">
<g id="Edit Square">
<path id="Stroke 1" d="M8.57693 1.32417H5.4611C2.8986 1.32417 1.29193 3.13833 1.29193 5.70666V12.635C1.29193 15.2033 2.8911 17.0175 5.4611 17.0175H12.8144C15.3853 17.0175 16.9844 15.2033 16.9844 12.635V9.27833" stroke="#6D7D78" stroke-width="1.5" stroke-linecap="round" stroke-linejoin="round"/>
<path id="Stroke 3" fill-rule="evenodd" clip-rule="evenodd" d="M6.35652 8.10075L12.584 1.87325C13.3599 1.09825 14.6174 1.09825 15.3932 1.87325L16.4074 2.88742C17.1832 3.66325 17.1832 4.92158 16.4074 5.69658L10.1499 11.9541C9.81069 12.2932 9.35069 12.4841 8.87069 12.4841H5.74902L5.82736 9.33408C5.83902 8.87075 6.02819 8.42908 6.35652 8.10075Z" stroke="#6D7D78" stroke-width="1.5" stroke-linecap="round" stroke-linejoin="round"/>
<path id="Stroke 5" d="M11.6377 2.83542L15.4427 6.64042" stroke="#6D7D78" stroke-width="1.5" stroke-linecap="round" stroke-linejoin="round"/>
</g>
</svg>
