<svg width="22" height="22" viewBox="0 0 22 22" fill="none" xmlns="http://www.w3.org/2000/svg">
<g id="iconoir:shopping-bag-remove">
<path id="Vector" d="M12.8338 4.58333C12.8338 4.0971 12.6406 3.63079 12.2968 3.28697C11.953 2.94315 11.4867 2.75 11.0005 2.75C10.5142 2.75 10.0479 2.94315 9.70409 3.28697C9.36027 3.63079 9.16712 4.0971 9.16712 4.58333M8.24312 13.75H13.7431M17.6555 8.888L18.925 17.138C18.9652 17.3991 18.9484 17.6658 18.8759 17.9199C18.8034 18.1739 18.6769 18.4093 18.5049 18.6098C18.333 18.8104 18.1197 18.9715 17.8798 19.082C17.6398 19.1924 17.3788 19.2498 17.1146 19.25H4.88629C4.62195 19.25 4.36073 19.1929 4.12054 19.0825C3.88035 18.9721 3.66687 18.8111 3.49474 18.6105C3.3226 18.4099 3.19588 18.1745 3.12327 17.9203C3.05065 17.6661 3.03386 17.3993 3.07404 17.138L4.34362 8.888C4.41022 8.45496 4.62969 8.06008 4.9623 7.77489C5.29491 7.48971 5.71865 7.33306 6.15679 7.33333H15.8441C16.2821 7.33328 16.7056 7.49002 17.038 7.77519C17.3705 8.06036 17.5898 8.45511 17.6564 8.888H17.6555Z" stroke="#6D7D78" stroke-width="1.5" stroke-linecap="round" stroke-linejoin="round"/>
</g>
</svg>
