<svg width="22" height="22" viewBox="0 0 22 22" fill="none" xmlns="http://www.w3.org/2000/svg">
<g id="Iconsax/Linear/profiletick">
<path id="Vector" d="M13.2366 17.4625L14.63 18.8558L17.4166 16.0692M10.9908 19.9925C9.32247 19.9925 7.66331 19.5708 6.39831 18.7275C4.17997 17.2425 4.17997 14.8225 6.39831 13.3467C8.91914 11.66 13.0533 11.66 15.5741 13.3467M11.1466 9.96417C11.055 9.955 10.945 9.955 10.8441 9.96417C9.792 9.92844 8.79506 9.4846 8.06447 8.72663C7.33387 7.96866 6.92699 6.95608 6.92997 5.90333C6.92853 5.36922 7.03251 4.84007 7.23596 4.34622C7.43941 3.85237 7.73833 3.40353 8.11558 3.02542C8.49283 2.64732 8.941 2.34739 9.43439 2.14283C9.92778 1.93826 10.4567 1.83309 10.9908 1.83333C13.2366 1.83333 15.0608 3.6575 15.0608 5.90333C15.0608 8.10333 13.3191 9.89083 11.1466 9.96417Z" stroke="#6D7D78" stroke-width="1.5" stroke-linecap="round" stroke-linejoin="round"/>
</g>
</svg>
